PathFileType	4	(X/Y/Z)	Patient4_TMGait_0pt5_02_right_21.trc.trc
DataRate	CameraRate	NumFrames	NumMarkers	Units	OrigDataRate	OrigDataStartFrame	OrigNumFrames
72.164948453608	72.164948453608	4	33	mm	72.164948453608	1	       141
Frame#	Time	Sacral			L.Shoulder			Chest			R.Shoulder			Neck			R.ASIS			L.ASIS			R.Thigh.Superior			R.Thigh.Lateral			R.Thigh.Inferior			R.Patella			L.Thigh.Superior			L.Thigh.Lateral			L.Thigh.Inferior			L.Patella			L.Shank.Superior			L.Shank.Lateral			L.Shank.Inferior			R.Shank.Superior			R.Shank.Lateral			R.Shank.Inferior			R.Heel			R.Midfoot.Superior			R.Midfoot.Lateral			R.Toe			L.Heel			L.Midfoot.Lateral			L.Midfoot.Superior			L.Toe			L.Elbow			L.Wrist			R.Elbow			R.Wrist			
		X1	Y1	Z1	X2	Y2	Z2	X3	Y3	Z3	X4	Y4	Z4	X5	Y5	Z5	X6	Y6	Z6	X7	Y7	Z7	X8	Y8	Z8	X9	Y9	Z9	X10	Y10	Z10	X11	Y11	Z11	X12	Y12	Z12	X13	Y13	Z13	X14	Y14	Z14	X15	Y15	Z15	X16	Y16	Z16	X17	Y17	Z17	X18	Y18	Z18	X19	Y19	Z19	X20	Y20	Z20	X21	Y21	Z21	X22	Y22	Z22	X23	Y23	Z23	X24	Y24	Z24	X25	Y25	Z25	X26	Y26	Z26	X27	Y27	Z27	X28	Y28	Z28	X29	Y29	Z29	X30	Y30	Z30	X31	Y31	Z31	X32	Y32	Z32	X33	Y33	Z33	

1	27.250000000000	599.630989605057	1016.379463791597	454.932990383257	818.431828242875	1431.476689238369	277.962585115157	913.301264550820	1348.908019618087	438.284448169085	835.177663410414	1428.421301406512	613.605302109654	823.837488943270	1489.126223498273	429.257570479996	821.530225548757	937.371387982768	570.708738689283	811.131662194589	953.443799502315	297.272204090306	890.130087664939	759.493774707097	542.439187528069	841.617158220088	643.597035472859	615.690660366750	927.293215454449	596.694547268178	535.927838739504	936.311749139966	481.817397044104	557.560524050645	863.829291134034	749.680493682258	334.121642885660	781.336047041438	631.883015716576	277.438087826375	865.481065943802	557.223828435475	346.210172226993	867.705434439457	484.454098821748	358.230124672946	834.828735356654	411.773422863810	349.741445707390	741.885905937610	303.554087273289	293.167241717417	776.909290487742	190.290332432626	368.554706559283	852.288457040688	414.849559044356	565.056154804252	726.336879995289	389.670800045760	623.708206938660	700.923119492052	282.335249246778	577.031528501171	498.483969707822	257.682261430529	544.937029048124	646.903755916791	157.957303810010	589.637634027298	539.352877076774	185.406981630467	619.929114154257	680.192006480163	33.038976508529	618.224355124434	636.144222047787	38.822502738562	398.749072743196	715.291478988106	35.502526650131	323.582291898931	797.248495991694	95.474535439261	356.080039951261	927.182491820761	39.840010276167	336.192601148097	723.599941879333	1105.570371532271	128.870138824660	862.379831703190	882.889336498976	122.848018662709	762.338207627862	1085.552086216607	724.844568666916	844.944006937255	837.147965875848	733.181215985473	
2	27.263857142857	598.061435487078	1017.080250044232	452.767723970271	819.231728313314	1432.057390788254	277.750004928865	912.126632414087	1349.536395888636	439.156143394587	832.031009291591	1429.196401430362	613.591517382715	822.955468355264	1489.755970865508	429.155901387251	819.187681249057	938.735789972395	570.903931830245	811.502185260515	953.985536171186	297.358216778427	891.328388880855	764.491801130322	542.391703781636	845.702269141893	647.560807706700	615.497045398391	932.803688216603	603.086207834271	535.842192862130	944.999924588232	488.536146660262	557.465980995685	861.946842350505	748.791823599913	334.959677815741	778.509201599411	631.808213616859	277.598101874239	861.034835221820	556.387859577876	347.176486708725	862.428323194527	483.761781923830	359.203747101691	829.266666877434	411.340844400068	350.306314049819	736.118320103416	303.557924456339	293.231776069621	770.138479636221	190.117042398833	368.728258739100	862.847594089243	419.349908456255	564.795777828391	737.304120711849	390.186878621837	622.230495535023	715.890524081887	281.947239778301	575.751829591421	514.638052522970	249.266821255464	541.622767062057	666.433883553945	156.990606574759	588.788872251088	557.784809566424	180.361078151996	618.150305046253	704.705636574850	34.431591958249	620.170954272955	628.725439263723	38.948125483652	398.609847394925	707.963488030316	35.520734320662	323.517121080089	789.944979715955	95.480288187632	356.047195547113	919.836508184721	39.784857050573	336.163168972964	725.715139104927	1106.239992185578	127.832070960026	866.573918147830	885.027701061027	125.105867231225	750.992311547517	1088.418907625163	723.862262159223	822.102882785272	837.957591069204	738.228649710285	
3	27.277714285714	596.519795421913	1017.787388177765	450.639318425810	820.076757588974	1432.642771083572	277.572713048697	910.961298230556	1350.169873050133	440.075347737523	828.875361640119	1429.989425316723	613.586209259819	822.086695263708	1490.393417839817	429.080512099159	816.821373510806	940.112179652591	571.164793492491	811.829029352930	954.502120122269	297.531622870952	892.426393898784	769.474579488879	542.373686078683	849.653288746995	651.503372731155	615.312848666923	938.091261865230	609.398385988332	535.740286594599	953.417312108585	495.232833693093	557.392612765413	860.036291961405	747.913739879096	335.854839315484	775.665898152883	631.757500501408	277.768167610524	856.562778180668	555.569565831711	348.154916945895	857.124477338276	483.084379750686	360.175906774059	823.689593959654	410.928799804177	350.865540555890	730.340439718811	303.574961586234	293.298160260839	763.378537937205	189.957025758280	368.897225909790	873.284599504539	423.780689776805	564.560908343116	748.314501989505	390.376645699439	620.854599803555	731.090015663464	281.281326128280	574.557836201557	531.190833764366	240.182156478221	538.533597608731	686.438654235416	155.729767889085	588.010110980817	576.747152961525	174.735391048285	616.523214789136	729.933882884784	35.702101339548	622.038330055375	621.337324530022	39.076594873791	398.469293513352	700.661285164684	35.540053522196	323.454771206708	782.669206118871	95.490330208545	356.011860343344	912.517471163003	39.730177581637	336.135174136371	727.848761026746	1106.912933409234	126.846651195798	870.745941550809	887.158570509774	127.481059688401	739.821049058880	1091.294262493412	722.864128471203	799.568491682370	838.918064884255	743.071512260257	
4	27.291571428571	595.037963819449	1018.489593718786	448.608203655848	820.988102912002	1433.220919649644	277.473761945638	909.820385873052	1350.793989404292	441.079353569987	825.735817128447	1430.792268003326	613.609204412087	821.246694671277	1491.027760829076	429.067217367254	814.439655720749	941.481735836162	571.541347140186	812.073347632537	954.966206614201	297.853066973907	893.308776150830	774.325775745115	542.423933771399	853.262394898119	655.326660562021	615.167840170332	942.869034088654	615.449593004914	535.638145321037	961.219323192208	501.803332812141	557.370584027469	858.071892029790	747.048263391139	336.835259704170	772.802302390283	631.742391548134	277.954189165738	852.069927466359	554.783469720645	349.141394132015	851.801530542706	482.431573589714	361.133807365220	818.114533146697	410.548112797556	351.409641175777	724.570398058958	303.610690142139	293.369797844846	756.671197862155	189.817601989821	369.058850754410	883.379633944055	428.040118457572	564.391404154738	759.344004491423	389.983724674170	619.703710380857	746.628381195736	280.165068330324	573.548577047844	548.482415698832	230.023268670306	535.905359147730	707.213450195533	154.033882985164	587.372361354109	596.650081544591	168.192697359744	615.201136451706	756.298671064371	36.881103278130	623.743183566776	614.038457353227	39.208517450805	398.331222321597	693.438843088150	35.561879951760	323.398835334663	775.476190044291	95.505937520241	355.975107232960	905.279986259742	39.677066655894	336.109690556374	730.015000834258	1107.567916415548	125.980932333492	874.861674484020	889.248759010876	130.072161219054	729.044137908769	1094.147051040266	721.852526033598	777.786805494387	840.116287461817	747.498521500562	
